<svg width="303" height="157" xmlns="http://www.w3.org/2000/svg"><g fill="none" fill-rule="evenodd"><g fill-rule="nonzero"><path d="M111.288 151.806l-18.84-7.778 23.207-56.202a2.728 2.728 0 0 1 3.562-1.48l13.798 5.697a2.728 2.728 0 0 1 1.48 3.562l-23.207 56.201z" fill="#8D6A59"/><path fill="#000" opacity=".2" d="M129.463 107.792l-13.126 5.084-5.715-12.862-2.424 5.871 3.845 8.654-8.831 3.42-2.425 5.872 13.126-5.083 5.715 12.862 2.425-5.872-3.846-8.654 8.832-3.42z"/><path d="M130.688 104.828l-18.841-7.78 3.808-9.222a2.728 2.728 0 0 1 3.562-1.48l13.798 5.697a2.728 2.728 0 0 1 1.48 3.562l-3.807 9.223z" fill="#FFF" opacity=".3"/><path d="M11.034 110.955C19.86 99.743 23.777 87.897 22.68 75.713l15.407-1.388c.985 10.939-1.043 21.757-6.029 32.155-3.16 6.591-6.767 11.454-9.077 14.325a2.187 2.187 0 0 1-3.106.309l-8.53-7.123a2.188 2.188 0 0 1-.31-3.036z" fill="#E36566"/><path d="M11.034 110.955C19.86 99.743 23.777 87.897 22.68 75.713l15.407-1.388c.985 10.939-1.043 21.757-6.029 32.155-3.16 6.591-6.767 11.454-9.077 14.325a2.187 2.187 0 0 1-3.106.309l-8.53-7.123a2.188 2.188 0 0 1-.31-3.036z" fill="#000" opacity=".15"/><path d="M1.32 92.019c12.977-5.935 21.878-14.68 26.474-26.016l14.336 5.81c-4.126 10.178-10.878 18.872-20.067 25.839-5.826 4.417-11.257 7.092-14.624 8.589a2.186 2.186 0 0 1-2.904-1.146L.207 94.86A2.188 2.188 0 0 1 1.32 92.02z" fill="#E36566"/><path d="M33.852 120.634c-22.625 3.617-25.827 23.849-26.15 32.472a3.758 3.758 0 0 0 3.76 3.894h22.39v-36.366z" fill="#394049"/><path d="M30.452 121.34c-9.346 9.148-15.34 21.705-15.968 35.66h19.369v-36.366c-1.188.19-2.318.43-3.4.707z" fill="#000" opacity=".3"/><path d="M111.813 120.634c22.626 3.617 25.827 23.849 26.15 32.472a3.758 3.758 0 0 1-3.76 3.894h-22.39v-36.366z" fill="#394049"/><path d="M115.213 121.34c9.347 9.148 15.34 21.705 15.97 35.66h-19.37v-36.366c1.188.19 2.317.43 3.4.707z" fill="#000" opacity=".3"/><path d="M126.15 157c0-29.443-23.871-53.312-53.317-53.312S19.517 127.557 19.517 157h106.632z" fill="#394049"/><path d="M72.833 103.688c-15.449 0-29.36 6.573-39.098 17.071 10.697 8.615 24.294 13.776 39.098 13.776 14.804 0 28.401-5.16 39.098-13.776-9.738-10.498-23.649-17.07-39.098-17.07z" fill="#000" opacity=".15"/><ellipse fill="#394049" cx="72.993" cy="62.374" rx="62.379" ry="62.374"/><path d="M111.371 65.819H34.295c-5.328 0-9.648-4.32-9.648-9.648 0-5.328 4.32-9.647 9.648-9.647h77.077c5.328 0 9.648 4.32 9.648 9.647 0 5.329-4.32 9.648-9.649 9.648z" fill="#F6CDB5"/><g fill="#394049"><path d="M38.363 61.715a2.3 2.3 0 0 1-2.3-2.3v-7.574a2.3 2.3 0 1 1 4.6 0v7.575a2.3 2.3 0 0 1-2.3 2.3zM107.303 61.715a2.3 2.3 0 0 1-2.3-2.3v-7.574a2.3 2.3 0 1 1 4.6 0v7.575a2.3 2.3 0 0 1-2.3 2.3z"/></g><path d="M72.833 80.795c-3.21 0-6.275-1.546-8.196-4.136a2.3 2.3 0 1 1 3.694-2.74 5.56 5.56 0 0 0 4.502 2.277 5.56 5.56 0 0 0 4.502-2.278 2.3 2.3 0 0 1 3.694 2.74 10.254 10.254 0 0 1-8.196 4.137z" fill="#FFF" opacity=".1"/><path d="M127.008 31.16H18.978a61.98 61.98 0 0 0-6.33 15.364h120.689a61.999 61.999 0 0 0-6.33-15.365z" fill="#E36566"/></g><path d="M171.456 72V20.736h7.344v43.92h14.544V72h-21.888zm26.856 0V20.736h7.344V72h-7.344zm14.184 0V20.736h7.056l11.088 30.888h.144V20.736h7.344V72h-6.912l-11.232-30.816h-.144V72h-7.344zm37.08 0V27.648h-8.496v-6.912h24.336v6.912h-8.496V72h-7.344zm12.024 0v-7.344h7.344V72H261.6zm-90.432 72V92.736h7.056l11.088 30.888h.144V92.736h7.344V144h-6.912l-11.232-30.816h-.144V144h-7.344zm32.472 0V92.736h7.344V144h-7.344zm14.184 0V92.736h7.056l11.088 30.888h.144V92.736h7.344V144h-6.912l-11.232-30.816h-.144V144h-7.344zm49.32-51.264v39.168c0 3.504-1.104 6.432-3.312 8.784a12.28 12.28 0 0 1-3.924 2.736c-1.512.672-3.276 1.008-5.292 1.008-2.352 0-4.308-.516-5.868-1.548-1.56-1.032-2.796-2.052-3.708-3.06l5.76-4.608c.528.528 1.14.972 1.836 1.332.696.36 1.428.54 2.196.54.432 0 .936-.084 1.512-.252.576-.168 1.128-.492 1.656-.972.528-.432.96-1.044 1.296-1.836.336-.792.504-1.836.504-3.132v-38.16h7.344zm21.744 33.336l-3.6-18.576h-.144l-3.6 18.576h7.344zM270.744 144l11.448-51.264h6.12L299.76 144h-7.344l-2.16-11.016h-10.008L278.088 144h-7.344z" fill="#394049"/><path d="M167.5 151H301" stroke="#E36566" stroke-width="4" stroke-linecap="square"/></g></svg>