<?xml version="1.0" encoding="UTF-8"?>
<svg width="129px" height="13px" viewBox="0 0 129 13" version="1.1" xmlns="http://www.w3.org/2000/svg" xmlns:xlink="http://www.w3.org/1999/xlink">
    <!-- Generator: Sketch 46 (44423) - http://www.bohemiancoding.com/sketch -->
    <title>Group</title>
    <desc>Created with Sketch.</desc>
    <defs></defs>
    <g id="Page-1" stroke="none" stroke-width="1" fill="none" fill-rule="evenodd">
        <g id="Group" transform="translate(1.000000, -3.000000)">
            <path d="M9.024,8.48 C9.19466752,8.48 9.3333328,8.53066616 9.44,8.632 C9.5466672,8.73333384 9.66933264,8.93333184 9.808,9.232 L11.12,12.176 C11.1626669,12.2826672 11.2266662,12.3466666 11.312,12.368 C11.3973338,12.3893334 11.477333,12.4 11.552,12.4 L11.632,12.4 C11.7173338,12.4 11.797333,12.3653337 11.872,12.296 C11.946667,12.2266663 11.9893333,12.1493338 12,12.064 L12.4,10.24 C12.4426669,10.0373323 12.4666666,9.7760016 12.472,9.456 C12.4773334,9.1359984 12.48,8.85866784 12.48,8.624 L12.48,3.92 L12.64,3.92 L12.64,8.64 C12.64,8.87466784 12.6373334,9.1519984 12.632,9.472 C12.6266666,9.7920016 12.6026669,10.0533323 12.56,10.256 L12.16,12.064 C12.1173331,12.2346675 12.0506671,12.3599996 11.96,12.44 C11.8693329,12.5200004 11.7600006,12.56 11.632,12.56 L11.52,12.56 C11.4239995,12.56 11.3226672,12.5413335 11.216,12.504 C11.1093328,12.4666665 11.0346669,12.3946672 10.992,12.288 L9.68,9.312 C9.55199936,9.02399856 9.44266712,8.8400004 9.352,8.76 C9.26133288,8.6799996 9.15200064,8.64 9.024,8.64 L8.304,8.64 C8.17599936,8.64 8.06666712,8.6799996 7.976,8.76 C7.88533288,8.8400004 7.77600064,9.02399856 7.648,9.312 L6.336,12.288 C6.29333312,12.3946672 6.2186672,12.4666665 6.112,12.504 C6.0053328,12.5413335 5.90400048,12.56 5.808,12.56 L5.696,12.56 C5.56799936,12.56 5.45866712,12.5200004 5.368,12.44 C5.27733288,12.3599996 5.21066688,12.2346675 5.168,12.064 L4.768,10.256 C4.72533312,10.0533323 4.70133336,9.7920016 4.696,9.472 C4.69066664,9.1519984 4.688,8.87466784 4.688,8.64 L4.688,3.92 L4.848,3.92 L4.848,8.624 C4.848,8.85866784 4.85066664,9.1359984 4.856,9.456 C4.86133336,9.7760016 4.88533312,10.0373323 4.928,10.24 L5.328,12.064 C5.33866672,12.1493338 5.38133296,12.2266663 5.456,12.296 C5.53066704,12.3653337 5.61066624,12.4 5.696,12.4 L5.776,12.4 C5.85066704,12.4 5.93066624,12.3893334 6.016,12.368 C6.10133376,12.3466666 6.16533312,12.2826672 6.208,12.176 L7.52,9.232 C7.65866736,8.93333184 7.7813328,8.73333384 7.888,8.632 C7.9946672,8.53066616 8.13333248,8.48 8.304,8.48 L9.024,8.48 Z M18.08,3.92 L18.24,3.92 L18.24,10.592 C18.24,11.1893363 18.4506646,11.6719982 18.872,12.04 C19.2933354,12.4080018 20.0959941,12.592 21.28,12.592 C22.4640059,12.592 23.2693312,12.4080018 23.696,12.04 C24.1226688,11.6719982 24.336,11.1893363 24.336,10.592 L24.336,3.92 L24.496,3.92 L24.496,10.592 C24.496,11.2320032 24.2720022,11.751998 23.824,12.152 C23.3759978,12.552002 22.5280062,12.752 21.28,12.752 C20.0319938,12.752 19.1866689,12.552002 18.744,12.152 C18.3013311,11.751998 18.08,11.2320032 18.08,10.592 L18.08,3.92 Z M32.4,12.56 L32.4,4.08 L29.12,4.08 L29.12,3.92 L35.84,3.92 L35.84,4.08 L32.56,4.08 L32.56,12.56 L32.4,12.56 Z M42.896,12.56 L42.896,4.08 L39.616,4.08 L39.616,3.92 L46.336,3.92 L46.336,4.08 L43.056,4.08 L43.056,12.56 L42.896,12.56 Z M51.056,12.56 L51.056,3.92 L51.216,3.92 L51.216,8.16 L57.36,8.16 L57.36,3.92 L57.52,3.92 L57.52,12.56 L57.36,12.56 L57.36,8.32 L51.216,8.32 L51.216,12.56 L51.056,12.56 Z M68.608,12.4 L68.608,12.56 L63.216,12.56 L63.216,3.92 L68.608,3.92 L68.608,4.08 L63.376,4.08 L63.376,8.096 L67.312,8.096 L67.312,8.256 L63.376,8.256 L63.376,12.4 L68.608,12.4 Z M73.68,12.56 L73.68,3.92 L73.84,3.92 L73.84,12.4 L79.408,12.4 L79.408,9.248 L79.568,9.248 L79.568,12.56 L73.68,12.56 Z M89.328,12.56 L84.24,12.56 L84.24,12.4 L86.72,12.4 L86.72,4.08 L84.24,4.08 L84.24,3.92 L89.328,3.92 L89.328,4.08 L86.88,4.08 L86.88,12.4 L89.328,12.4 L89.328,12.56 Z M94.848,4.048 L100.736,10.672 L100.736,3.92 L100.896,3.92 L100.896,12.56 L100.736,12.56 L100.736,10.912 L94.688,4.128 C94.6773333,4.11733328 94.6640001,4.10666672 94.648,4.096 C94.6319999,4.08533328 94.6186667,4.08 94.608,4.08 C94.5973333,4.08 94.5893334,4.08533328 94.584,4.096 C94.5786666,4.10666672 94.576,4.11733328 94.576,4.128 L94.576,12.56 L94.416,12.56 L94.416,4.096 C94.416,4.03199968 94.4373331,3.98400016 94.48,3.952 C94.5226669,3.91999984 94.5653331,3.904 94.608,3.904 C94.6506669,3.904 94.6879998,3.91466656 94.72,3.936 C94.7520002,3.95733344 94.7946664,3.9946664 94.848,4.048 Z M108.848,12.56 L108.848,4.08 L105.568,4.08 L105.568,3.92 L112.288,3.92 L112.288,4.08 L109.008,4.08 L109.008,12.56 L108.848,12.56 Z M117.776,8.56 L117.744,8.384 L121.2,7.92 C121.402668,7.88799984 121.583999,7.8320004 121.744,7.752 C121.904001,7.6719996 121.984,7.49333472 121.984,7.216 L121.984,5.408 C121.984,4.88533072 121.842668,4.53866752 121.56,4.368 C121.277332,4.19733248 120.970668,4.112 120.64,4.112 L116.336,4.112 L116.336,3.952 L120.64,3.952 C121.002668,3.952 121.343998,4.05066568 121.664,4.248 C121.984002,4.44533432 122.144,4.83199712 122.144,5.408 L122.144,7.216 C122.144,7.54666832 122.053334,7.7653328 121.872,7.872 C121.690666,7.9786672 121.477335,8.04799984 121.232,8.08 L117.776,8.56 Z M118.144,12.72 L118.144,12.032 L118.304,12.032 L118.304,12.72 L118.144,12.72 Z" id="wutthelint?" fill="#404040"></path>
            <path d="M0.5,15 L126.5,15" id="Line" stroke="#C62727" stroke-width="2" stroke-linecap="square"></path>
        </g>
    </g>
</svg>